<svg xmlns="http://www.w3.org/2000/svg" width="33" height="33" viewBox="0 0 33 33" fill="none">
<g clip-path="url(#clip0_883_3061)">
<path d="M32.6509 16.8507C32.6509 14.8936 32.2989 13.0188 31.6557 11.2855L16.6509 10.5898L1.64607 11.2855C1.00294 13.0188 0.650879 14.8936 0.650879 16.8507C0.650879 18.8078 1.00294 20.6826 1.64607 22.4159L16.6509 23.1116L31.6557 22.416C32.2989 20.6826 32.6509 18.8078 32.6509 16.8507Z" fill="#0052B4"/>
<path d="M16.6508 32.8508C23.5302 32.8508 29.3949 28.5088 31.6556 22.416H1.646C3.90668 28.5088 9.77137 32.8508 16.6508 32.8508Z" fill="#FF9811"/>
<path d="M1.646 11.2864H31.6557C29.3949 5.19356 23.5302 0.851562 16.6508 0.851562C9.77137 0.851562 3.90668 5.19356 1.646 11.2864Z" fill="#D80027"/>
</g>
<defs>
<clipPath id="clip0_883_3061">
<rect width="32" height="32" fill="white" transform="translate(0.650879 0.851562)"/>
</clipPath>
</defs>
</svg>