<svg xmlns="http://www.w3.org/2000/svg" width="33" height="33" viewBox="0 0 33 33" fill="none">
<g clip-path="url(#clip0_883_3051)">
<path d="M32.6509 16.8507C32.6509 14.8936 32.2989 13.0188 31.6557 11.2855L16.6509 10.5898L1.64607 11.2855C1.00294 13.0188 0.650879 14.8936 0.650879 16.8507C0.650879 18.8078 1.00294 20.6826 1.64607 22.4159L16.6509 23.1116L31.6557 22.416C32.2989 20.6826 32.6509 18.8078 32.6509 16.8507Z" fill="#D80027"/>
<path d="M16.6508 32.8508C23.5302 32.8508 29.3949 28.5088 31.6556 22.416H1.646C3.90668 28.5088 9.77137 32.8508 16.6508 32.8508Z" fill="#6DA544"/>
<path d="M1.646 11.2864H31.6557C29.3949 5.19356 23.5302 0.851562 16.6508 0.851562C9.77137 0.851562 3.90668 5.19356 1.646 11.2864Z" fill="#338AF3"/>
<path d="M16.9987 21.3741C14.5014 21.3741 12.4769 19.3496 12.4769 16.8524C12.4769 14.3551 14.5014 12.3306 16.9987 12.3306C17.7773 12.3306 18.51 12.5275 19.1496 12.8741C18.1461 11.8928 16.7738 11.2871 15.2595 11.2871C12.1859 11.2871 9.69434 13.7787 9.69434 16.8523C9.69434 19.9259 12.186 22.4175 15.2595 22.4175C16.7739 22.4175 18.1462 21.8118 19.1496 20.8305C18.51 21.1772 17.7773 21.3741 16.9987 21.3741Z" fill="#F0F0F0"/>
<path d="M20.4769 13.7227L21.0758 15.4071L22.6904 14.6395L21.9229 16.2541L23.6073 16.8531L21.9229 17.4521L22.6904 19.0667L21.0758 18.2991L20.4769 19.9835L19.878 18.2991L18.2633 19.0667L19.0309 17.4521L17.3464 16.8531L19.0309 16.2541L18.2633 14.6395L19.878 15.4071L20.4769 13.7227Z" fill="#F0F0F0"/>
</g>
<defs>
<clipPath id="clip0_883_3051">
<rect width="32" height="32" fill="white" transform="translate(0.650879 0.851562)"/>
</clipPath>
</defs>
</svg>