<svg width="28" height="28" viewBox="0 0 28 28" fill="#ffffff" xmlns="http://www.w3.org/2000/svg" class="uk-svg">
<path d="M8.66701 12.6664C8.66701 12.3128 8.80748 11.9736 9.05753 11.7236C9.30758 11.4735 9.64672 11.3331 10.0003 11.3331H18.0003C18.354 11.3331 18.6931 11.4735 18.9432 11.7236C19.1932 11.9736 19.3337 12.3128 19.3337 12.6664C19.3337 13.02 19.1932 13.3591 18.9432 13.6092C18.6931 13.8592 18.354 13.9997 18.0003 13.9997H10.0003C9.64672 13.9997 9.30758 13.8592 9.05753 13.6092C8.80748 13.3591 8.66701 13.02 8.66701 12.6664ZM10.0003 16.6664C9.64672 16.6664 9.30758 16.8069 9.05753 17.0569C8.80748 17.307 8.66701 17.6461 8.66701 17.9997C8.66701 18.3533 8.80748 18.6925 9.05753 18.9425C9.30758 19.1926 9.64672 19.3331 10.0003 19.3331H15.3337C15.6873 19.3331 16.0264 19.1926 16.2765 18.9425C16.5265 18.6925 16.667 18.3533 16.667 17.9997C16.667 17.6461 16.5265 17.307 16.2765 17.0569C16.0264 16.8069 15.6873 16.6664 15.3337 16.6664H10.0003ZM0.667007 13.9997C0.667676 11.0765 1.62898 8.23454 3.40299 5.91118C5.17699 3.58781 7.66536 1.91183 10.4851 1.14115C13.3049 0.370483 16.2998 0.547838 19.009 1.64593C21.7181 2.74401 23.9912 4.70198 25.4786 7.21848C26.966 9.73498 27.5852 12.6705 27.2408 15.5734C26.8965 18.4762 25.6077 21.1855 23.5729 23.2842C21.538 25.3829 18.8699 26.7547 15.979 27.1885C13.0882 27.6223 10.1349 27.094 7.57367 25.6851L2.38967 27.2637C2.15845 27.3342 1.91243 27.3404 1.67792 27.2818C1.44342 27.2232 1.22925 27.102 1.05833 26.9311C0.887416 26.7601 0.766175 26.546 0.70758 26.3115C0.648984 26.077 0.655239 25.8309 0.725674 25.5997L2.30434 20.4077C1.22689 18.444 0.663641 16.2396 0.667007 13.9997ZM14.0003 3.33305C12.1068 3.3329 10.2474 3.83677 8.61309 4.79294C6.97874 5.7491 5.62837 7.12308 4.70068 8.77375C3.77299 10.4244 3.30142 12.2923 3.3344 14.1855C3.36738 16.0787 3.90372 17.929 4.88834 19.5464C4.98608 19.7071 5.04873 19.8866 5.07217 20.0732C5.0956 20.2598 5.07931 20.4492 5.02434 20.6291L4.00301 23.9864L7.35501 22.9651C7.53543 22.9101 7.72546 22.894 7.91255 22.9179C8.09964 22.9418 8.27953 23.0052 8.44034 23.1037C9.84615 23.962 11.4316 24.4831 13.0725 24.6261C14.7134 24.7691 16.3651 24.5302 17.8982 23.928C19.4313 23.3259 20.8041 22.3768 21.9091 21.1553C23.014 19.9338 23.8211 18.473 24.267 16.8874C24.7129 15.3018 24.7856 13.6345 24.4793 12.0161C24.173 10.3977 23.496 8.87227 22.5015 7.55929C21.507 6.2463 20.2219 5.18147 18.747 4.44824C17.2721 3.71501 15.6475 3.33331 14.0003 3.33305Z"></path>
</svg>