<svg width="16" height="34" viewBox="0 0 16 34" fill="#ffffff" xmlns="http://www.w3.org/2000/svg" class="uk-svg">
<path d="M8.86438 33.032H5.84038V29.18C3.87238 28.988 2.20438 28.496 0.836383 27.704V23.852C2.73238 25.268 4.92838 25.976 7.42438 25.976C8.74438 25.976 9.78838 25.676 10.5564 25.076C11.3484 24.452 11.7444 23.6 11.7444 22.52C11.7444 21.944 11.6484 21.512 11.4564 21.224C11.2644 20.936 11.1084 20.72 10.9884 20.576C10.8684 20.408 10.6644 20.24 10.3764 20.072C10.1124 19.88 9.89638 19.736 9.72838 19.64C9.58438 19.52 9.32038 19.376 8.93638 19.208C8.57638 19.016 8.31238 18.884 8.14438 18.812C7.97638 18.716 7.66438 18.572 7.20838 18.38C4.92838 17.42 3.27238 16.424 2.24038 15.392C1.20838 14.36 0.692383 12.944 0.692383 11.144C0.692383 9.31999 1.32838 7.81999 2.60038 6.64399C3.87238 5.46799 5.55238 4.78399 7.64038 4.59199V0.73999H10.7004V4.66399C12.1404 4.87999 13.3524 5.22799 14.3364 5.70799V9.37999C12.7524 8.37199 10.9284 7.86799 8.86438 7.86799C7.54438 7.86799 6.51238 8.16799 5.76838 8.76799C5.02438 9.34399 4.65238 10.112 4.65238 11.072C4.65238 12.128 5.16838 12.992 6.20038 13.664C6.89638 14.144 7.84438 14.66 9.04438 15.212C10.2684 15.74 11.1684 16.172 11.7444 16.508C12.3204 16.82 12.9444 17.252 13.6164 17.804C14.9364 18.884 15.5964 20.408 15.5964 22.376C15.5964 24.32 14.9844 25.892 13.7604 27.092C12.5364 28.268 10.9044 28.964 8.86438 29.18V33.032Z"></path>
</svg>