<svg xmlns="http://www.w3.org/2000/svg" width="33" height="33" viewBox="0 0 33 33" fill="none">
<path d="M16.6506 0.851562V32.8516C25.4875 32.8516 32.6509 25.6881 32.6509 16.8518C32.6509 8.01472 25.4874 0.851562 16.6506 0.851562Z" fill="#214391"/>
<path d="M16.6506 0.851562C7.81431 0.851562 0.650879 8.01472 0.650879 16.8518C0.650879 25.6881 7.81431 32.8516 16.6506 32.8516C25.4875 32.8516 25.4875 0.851562 16.6506 0.851562Z" fill="#2B479D"/>
<path d="M16.6232 3.62695L17.0135 4.82797H18.2767L17.2548 5.57022L17.6451 6.77124L16.6232 6.02852L15.6016 6.77124L15.9919 5.57022L14.9697 4.82797H16.2329L16.6232 3.62695Z" fill="#F8D12E"/>
<path d="M16.6232 26.3008L17.0135 27.5023H18.2767L17.2548 28.2446L17.6451 29.4455L16.6232 28.7034L15.6016 29.4455L15.9919 28.2446L14.9697 27.5023H16.2329L16.6232 26.3008Z" fill="#F8D12E"/>
<path d="M22.8456 5.63672L23.2357 6.83801H24.4989L23.4769 7.58073L23.8673 8.78175L22.8456 8.03903L21.8238 8.78175L22.214 7.58073L21.1924 6.83801H22.4556L22.8456 5.63672Z" fill="#F8D12E"/>
<path d="M27.0913 9.82422L27.4813 11.0252H28.7445L27.7226 11.7678L28.1129 12.9688L27.0913 12.2265L26.0693 12.9688L26.4597 11.7678L25.4377 11.0252H26.7006L27.0913 9.82422Z" fill="#F8D12E"/>
<path d="M27.1923 20.4082L27.5824 21.6097H28.8455L27.8236 22.3519L28.2142 23.5527L27.1923 22.8107L26.1704 23.5527L26.5607 22.3519L25.5388 21.6097H26.802L27.1923 20.4082Z" fill="#F8D12E"/>
<path d="M6.30901 9.82422L6.69908 11.0252H7.96198L6.94032 11.7678L7.33039 12.9688L6.30901 12.2265L5.28715 12.9688L5.67742 11.7678L4.65576 11.0252H5.91893L6.30901 9.82422Z" fill="#F8D12E"/>
<path d="M28.0753 14.873L28.4654 16.0741H29.7286L28.7067 16.8163L29.097 18.0176L28.0753 17.2756L27.0535 18.0176L27.444 16.8163L26.4219 16.0741H27.6848L28.0753 14.873Z" fill="#F8D12E"/>
<path d="M5.34388 14.873L5.73395 16.0741H6.99685L5.97499 16.8163L6.36553 18.0176L5.34388 17.2756L4.32195 18.0176L4.71229 16.8163L3.69043 16.0741H4.95353L5.34388 14.873Z" fill="#F8D12E"/>
<path d="M6.172 20.4082L6.56207 21.6097H7.82498L6.80339 22.3519L7.19339 23.5527L6.172 22.8107L5.15014 23.5527L5.54042 22.3519L4.51855 21.6097H5.78173L6.172 20.4082Z" fill="#F8D12E"/>
<path d="M23.0289 24.7754L23.419 25.9764H24.6822L23.6601 26.7191L24.0506 27.9202L23.0289 27.1779L22.0068 27.9202L22.3974 26.7191L21.3755 25.9764H22.6387L23.0289 24.7754Z" fill="#F8D12E"/>
<path d="M10.6022 5.63672L10.9922 6.83801H12.2554L11.2335 7.58073L11.6241 8.78175L10.6022 8.03903L9.58056 8.78175L9.97084 7.58073L8.94897 6.83801H10.2119L10.6022 5.63672Z" fill="#F8D12E"/>
<path d="M10.1415 24.6992L10.5318 25.9008H11.795L10.7731 26.6428L11.1634 27.8438L10.1415 27.102L9.11987 27.8438L9.51014 26.6428L8.48828 25.9008H9.75118L10.1415 24.6992Z" fill="#F8D12E"/>
</svg>