<svg xmlns="http://www.w3.org/2000/svg" width="21" height="20" viewBox="0 0 21 20" fill="none">
<path d="M10.0078 0C4.49381 0 0.0078125 4.48606 0.0078125 10.0001C0.0078125 15.5141 4.49381 20 10.0078 20C15.5218 20 20.0078 15.5141 20.0078 10.0001C20.0078 4.48606 15.5218 0 10.0078 0ZM10.0078 18.1818C5.4963 18.1818 1.82599 14.5115 1.82599 10.0001C1.82599 5.48861 5.4963 1.81818 10.0078 1.81818C14.5193 1.81818 18.1896 5.48861 18.1896 10.0001C18.1896 14.5115 14.5193 18.1818 10.0078 18.1818Z" fill="#B5B5B5"/>
<path d="M10.0078 4.24243C9.33954 4.24243 8.7959 4.78643 8.7959 5.4551C8.7959 6.12316 9.33954 6.66667 10.0078 6.66667C10.676 6.66667 11.2197 6.12316 11.2197 5.4551C11.2197 4.78643 10.676 4.24243 10.0078 4.24243Z" fill="#B5B5B5"/>
<path d="M10.0077 8.48486C9.50566 8.48486 9.09863 8.89189 9.09863 9.39395V14.8485C9.09863 15.3506 9.50566 15.7576 10.0077 15.7576C10.5098 15.7576 10.9168 15.3506 10.9168 14.8485V9.39395C10.9168 8.89189 10.5098 8.48486 10.0077 8.48486Z" fill="#B5B5B5"/>
</svg>