<svg xmlns="http://www.w3.org/2000/svg" width="33" height="33" viewBox="0 0 33 33" fill="none"><style type="text/css"> .st0{fill:#19124C;} .st1{fill:#D80031;} .st2{fill:#FFFFFF;} .st3{fill:#1D2CA3;} .st4{fill:url(#SVGID_1_);} </style><circle class="st0" cx="16.5" cy="16.5" r="16"/><circle class="st1" cx="69.5" cy="16.5" r="16"/><g><path class="st2" d="M16.5,32.4c3.5,0,6.8-1.2,9.4-3.1H7.1C9.7,31.3,13,32.4,16.5,32.4z"/><polygon class="st2" points="14,14.2 12.4,14.2 13.2,15.5 "/><polygon class="st2" points="16.5,11.8 15.7,13.2 17.3,13.2 "/><polygon class="st2" points="15.1,18.8 17.9,18.8 19.2,16.5 17.9,14.2 15.1,14.2 13.8,16.5 "/><path class="st2" d="M7.1,3.7h18.9c-2.6-2-5.9-3.1-9.4-3.1S9.7,1.7,7.1,3.7z"/><polygon class="st2" points="20.6,14.2 19,14.2 19.8,15.5 "/><path class="st2" d="M0.6,16.5c0,2.8,0.7,5.4,2,7.7h27.9c1.3-2.3,2-4.9,2-7.7s-0.7-5.4-2-7.7H2.5C1.3,11.1,0.6,13.7,0.6,16.5z M14.6,13.2l1.9-3.4l1.9,3.4h3.9l-1.9,3.3l1.9,3.3h-3.9l-1.9,3.4l-1.9-3.4h-3.9l1.9-3.3l-1.9-3.3H14.6z"/><polygon class="st2" points="12.4,18.8 14,18.8 13.2,17.5 "/><polygon class="st2" points="19,18.8 20.6,18.8 19.8,17.5 "/><polygon class="st2" points="16.5,21.2 17.3,19.8 15.7,19.8 "/><path class="st3" d="M2.5,8.8h27.9c-1.1-2-2.7-3.8-4.5-5.1H7.1C5.2,5,3.7,6.8,2.5,8.8z"/><path class="st3" d="M7.1,29.3h18.9c1.8-1.4,3.4-3.1,4.5-5.1H2.5C3.7,26.2,5.2,28,7.1,29.3z"/><path class="st3" d="M10.7,19.8h3.9l1.9,3.4l1.9-3.4h3.9l-1.9-3.3l1.9-3.3h-3.9l-1.9-3.4l-1.9,3.4h-3.9l1.9,3.3L10.7,19.8z M12.4,18.8l0.8-1.3l0.8,1.3H12.4z M16.5,21.2l-0.8-1.4h1.6L16.5,21.2z M20.6,18.8H19l0.8-1.3L20.6,18.8z M20.6,14.2l-0.8,1.3 L19,14.2H20.6z M16.5,11.8l0.8,1.4h-1.6L16.5,11.8z M15.1,14.2h2.7l1.3,2.3l-1.3,2.3h-2.7l-1.3-2.3L15.1,14.2z M12.4,14.2H14 l-0.8,1.3L12.4,14.2z"/></g><g><g><path class="st2" d="M69.5,0.6c-8.8,0-15.9,7.1-15.9,15.9h31.8C85.4,7.7,78.3,0.6,69.5,0.6z"/><path class="st1" d="M69.5,32.4c8.8,0,15.9-7.1,15.9-15.9H53.6C53.6,25.3,60.7,32.4,69.5,32.4z"/></g><path class="st2" d="M54.6,16.5c0,0,0-0.2,0-0.5c0-0.3,0-0.8,0.1-1.5c0-0.3,0.1-0.7,0.1-1.1c0.1-0.4,0.2-0.8,0.3-1.2 c0.1-0.4,0.3-0.9,0.4-1.4c0.2-0.5,0.4-0.9,0.7-1.5c0.3-0.5,0.6-1,0.9-1.5c0.4-0.5,0.7-1,1.1-1.5c0.8-1,1.9-1.9,3-2.6 C62.4,3,63.7,2.4,65.1,2c1.4-0.4,2.9-0.6,4.4-0.7c1.5,0,3,0.2,4.4,0.7c1.4,0.5,2.7,1,3.9,1.8c1.1,0.8,2.2,1.7,3,2.6 c0.4,0.5,0.8,1,1.1,1.5c0.3,0.5,0.6,1,0.9,1.5c0.2,0.5,0.5,1,0.7,1.5c0.2,0.5,0.3,0.9,0.4,1.4c0.1,0.4,0.2,0.8,0.3,1.2 c0.1,0.4,0.1,0.7,0.1,1.1c0.1,0.6,0.1,1.1,0.1,1.5c0,0.3,0,0.5,0,0.5s0-0.2,0-0.5c0-0.3,0-0.8-0.2-1.5c-0.1-0.3-0.1-0.7-0.2-1 c-0.1-0.4-0.2-0.8-0.3-1.2c-0.1-0.4-0.3-0.9-0.5-1.3c-0.2-0.5-0.4-0.9-0.7-1.4c-0.3-0.5-0.6-1-0.9-1.4c-0.4-0.5-0.7-1-1.1-1.4 c-0.8-0.9-1.9-1.8-3-2.5c-1.1-0.7-2.4-1.3-3.8-1.7c-1.4-0.4-2.8-0.6-4.2-0.6c-1.4,0-2.9,0.2-4.2,0.6c-1.3,0.4-2.6,1-3.8,1.7 c-1.1,0.8-2.1,1.6-3,2.5c-0.4,0.4-0.8,0.9-1.1,1.4c-0.3,0.5-0.6,1-0.9,1.4C56.3,10,56,10.5,55.8,11c-0.2,0.5-0.4,0.9-0.5,1.3 c-0.1,0.4-0.2,0.8-0.3,1.2c-0.1,0.4-0.1,0.7-0.2,1c-0.1,0.6-0.1,1.1-0.2,1.5C54.6,16.3,54.6,16.5,54.6,16.5z"/><radialGradient id="SVGID_1_" cx="11.7251" cy="-221.6186" r="10.483" gradientTransform="matrix(1.2417 0 0 1.2417 55.1232 275.8203)" gradientUnits="userSpaceOnUse"><stop offset="0" style="stop-color:#5C5C5C"/><stop offset="1" style="stop-color:#2B2B2B"/></radialGradient><path class="st4" d="M83.4,8.7c-0.2,0.1-0.4,0.3-0.6,0.4C79,11.5,74.4,13,69.5,13c-4.9,0-9.5-1.4-13.3-3.9 c-0.2-0.1-0.4-0.2-0.6-0.4c2.7-4.8,7.9-8.1,13.9-8.1C75.4,0.6,80.6,3.9,83.4,8.7z"/></g></svg>