<svg width="22" height="30" viewBox="0 0 22 30" fill="none" xmlns="http://www.w3.org/2000/svg" class="uk-svg">
<path d="M11.5924 27.2098C11.3777 27.4744 11.179 27.7152 11 27.9296C10.821 27.7152 10.6223 27.4744 10.4076 27.2098C9.44061 26.0184 8.15352 24.3518 6.8691 22.4481C5.58209 20.5405 4.31444 18.4194 3.37264 16.3172C2.42292 14.1973 1.85 12.1956 1.85 10.5C1.85 5.44059 5.94058 1.35 11 1.35C16.0594 1.35 20.15 5.44059 20.15 10.5C20.15 12.1956 19.5771 14.1973 18.6274 16.3172C17.6856 18.4194 16.4179 20.5405 15.1309 22.4481C13.8465 24.3518 12.5594 26.0184 11.5924 27.2098Z" stroke="white" stroke-width="2.7"></path>
<circle cx="11" cy="10" r="3" stroke="white" stroke-width="2"></circle>
</svg>