<svg xmlns="http://www.w3.org/2000/svg" width="33" height="33" viewBox="0 0 33 33" fill="none"><style type="text/css"> .st0{fill:#D80031;} .st1{fill:#FFFFFF;} </style><circle class="st0" cx="16.5" cy="16.5" r="16"/><g><g><path class="st1" d="M16.5,0.6C7.7,0.6,0.6,7.7,0.6,16.5h31.8C32.4,7.7,25.3,0.6,16.5,0.6z"/><path class="st0" d="M16.5,32.4c8.8,0,15.9-7.1,15.9-15.9H0.6C0.6,25.3,7.7,32.4,16.5,32.4z"/></g><path class="st1" d="M1.6,16.5c0,0,0-0.2,0-0.5c0-0.3,0-0.8,0.1-1.5c0-0.3,0.1-0.7,0.1-1.1c0.1-0.4,0.2-0.8,0.3-1.2 c0.1-0.4,0.3-0.9,0.4-1.4C2.7,10.4,3,9.9,3.2,9.4c0.3-0.5,0.6-1,0.9-1.5c0.4-0.5,0.7-1,1.1-1.5c0.8-1,1.9-1.9,3-2.6 C9.4,3,10.7,2.4,12.1,2c1.4-0.4,2.9-0.6,4.4-0.7c1.5,0,3,0.2,4.4,0.7c1.4,0.5,2.7,1,3.9,1.8c1.1,0.8,2.2,1.7,3,2.6 c0.4,0.5,0.8,1,1.1,1.5c0.3,0.5,0.6,1,0.9,1.5c0.2,0.5,0.5,1,0.7,1.5c0.2,0.5,0.3,0.9,0.4,1.4c0.1,0.4,0.2,0.8,0.3,1.2 c0.1,0.4,0.1,0.7,0.1,1.1c0.1,0.6,0.1,1.1,0.1,1.5c0,0.3,0,0.5,0,0.5s0-0.2,0-0.5c0-0.3,0-0.8-0.2-1.5c-0.1-0.3-0.1-0.7-0.2-1 c-0.1-0.4-0.2-0.8-0.3-1.2c-0.1-0.4-0.3-0.9-0.5-1.3c-0.2-0.5-0.4-0.9-0.7-1.4c-0.3-0.5-0.6-1-0.9-1.4c-0.4-0.5-0.7-1-1.1-1.4 c-0.8-0.9-1.9-1.8-3-2.5c-1.1-0.7-2.4-1.3-3.8-1.7c-1.4-0.4-2.8-0.6-4.2-0.6c-1.4,0-2.9,0.2-4.2,0.6c-1.3,0.4-2.6,1-3.8,1.7 C7.4,5,6.4,5.8,5.5,6.7C5.1,7.2,4.8,7.7,4.4,8.1c-0.3,0.5-0.6,1-0.9,1.4C3.3,10,3,10.5,2.8,11c-0.2,0.5-0.4,0.9-0.5,1.3 c-0.1,0.4-0.2,0.8-0.3,1.2c-0.1,0.4-0.1,0.7-0.2,1c-0.1,0.6-0.1,1.1-0.2,1.5C1.6,16.3,1.6,16.5,1.6,16.5z"> </path></g></svg>