<svg xmlns="http://www.w3.org/2000/svg" width="33" height="33" viewBox="0 0 33 33" fill="none">
<g clip-path="url(#clip0_883_3042)">
<path d="M16.6509 32.8516C25.4874 32.8516 32.6509 25.6881 32.6509 16.8516C32.6509 8.01501 25.4874 0.851562 16.6509 0.851562C7.81432 0.851562 0.650879 8.01501 0.650879 16.8516C0.650879 25.6881 7.81432 32.8516 16.6509 32.8516Z" fill="#F0F0F0"/>
<path d="M31.6557 22.4175C32.2989 20.6842 32.6509 18.8094 32.6509 16.8523C32.6509 14.8952 32.2989 13.0204 31.6557 11.2871H1.64607C1.00294 13.0204 0.650879 14.8952 0.650879 16.8523C0.650879 18.8094 1.00294 20.6842 1.64607 22.4175L16.6509 23.8088L31.6557 22.4175Z" fill="#0052B4"/>
<path d="M16.6508 32.8508C23.5302 32.8508 29.3949 28.5088 31.6556 22.416H1.646C3.90668 28.5088 9.77137 32.8508 16.6508 32.8508Z" fill="#D80027"/>
</g>
<defs>
<clipPath id="clip0_883_3042">
<rect width="32" height="32" fill="white" transform="translate(0.650879 0.851562)"/>
</clipPath>
</defs>
</svg>