<svg xmlns="http://www.w3.org/2000/svg" width="33" height="33" viewBox="0 0 33 33" fill="none">
<g clip-path="url(#clip0_883_3046)">
<path d="M16.6509 32.8516C25.4874 32.8516 32.6509 25.6881 32.6509 16.8516C32.6509 8.01501 25.4874 0.851562 16.6509 0.851562C7.81432 0.851562 0.650879 8.01501 0.650879 16.8516C0.650879 25.6881 7.81432 32.8516 16.6509 32.8516Z" fill="#D80027"/>
<path d="M15.9957 13.9258L17.3085 15.7348L19.4345 15.0455L18.1197 16.853L19.4323 18.662L17.307 17.97L15.9922 19.7775L15.9935 17.5424L13.8682 16.8504L15.9943 16.161L15.9957 13.9258Z" fill="#F0F0F0"/>
<path d="M12.413 21.3741C9.91571 21.3741 7.89121 19.3496 7.89121 16.8524C7.89121 14.3551 9.91571 12.3306 12.413 12.3306C13.1916 12.3306 13.9242 12.5275 14.5638 12.8741C13.5604 11.8927 12.1881 11.2871 10.6738 11.2871C7.6002 11.2871 5.10864 13.7787 5.10864 16.8523C5.10864 19.9259 7.60027 22.4175 10.6738 22.4175C12.1882 22.4175 13.5605 21.8118 14.5638 20.8305C13.9242 21.1772 13.1916 21.3741 12.413 21.3741Z" fill="#F0F0F0"/>
</g>
<defs>
<clipPath id="clip0_883_3046">
<rect width="32" height="32" fill="white" transform="translate(0.650879 0.851562)"/>
</clipPath>
</defs>
</svg>