<svg xmlns="http://www.w3.org/2000/svg" width="33" height="33" viewBox="0 0 33 33" fill="none">
<g clip-path="url(#clip0_883_3009)">
<path d="M16.6509 32.8516C25.4874 32.8516 32.6509 25.6881 32.6509 16.8516C32.6509 8.01501 25.4874 0.851562 16.6509 0.851562C7.81432 0.851562 0.650879 8.01501 0.650879 16.8516C0.650879 25.6881 7.81432 32.8516 16.6509 32.8516Z" fill="#F0F0F0"/>
<path d="M3.95846 7.10938C2.70165 8.74456 1.75396 10.6292 1.20215 12.6767H9.52577L3.95846 7.10938Z" fill="#0052B4"/>
<path d="M32.0999 12.6766C31.5481 10.6293 30.6003 8.74456 29.3436 7.10938L23.7764 12.6766H32.0999Z" fill="#0052B4"/>
<path d="M1.20215 21.0254C1.75402 23.0728 2.70171 24.9575 3.95846 26.5926L9.52559 21.0254H1.20215Z" fill="#0052B4"/>
<path d="M26.3922 4.15872C24.757 2.90191 22.8724 1.95422 20.825 1.40234V9.72591L26.3922 4.15872Z" fill="#0052B4"/>
<path d="M6.90991 29.5437C8.5451 30.8005 10.4298 31.7482 12.4772 32.3001V23.9766L6.90991 29.5437Z" fill="#0052B4"/>
<path d="M12.4771 1.40234C10.4297 1.95422 8.54504 2.90191 6.90991 4.15866L12.4771 9.72584V1.40234Z" fill="#0052B4"/>
<path d="M20.825 32.3001C22.8723 31.7482 24.757 30.8005 26.3921 29.5437L20.825 23.9766V32.3001Z" fill="#0052B4"/>
<path d="M23.7764 21.0254L29.3436 26.5926C30.6003 24.9575 31.5481 23.0728 32.0999 21.0254H23.7764Z" fill="#0052B4"/>
<path d="M32.5154 14.7646H18.7379H18.7379V0.987C18.0547 0.898063 17.3582 0.851562 16.6509 0.851562C15.9434 0.851562 15.2471 0.898063 14.5639 0.987V14.7645V14.7646H0.786316C0.697379 15.4478 0.650879 16.1442 0.650879 16.8516C0.650879 17.559 0.697379 18.2554 0.786316 18.9385H14.5638H14.5639V32.7161C15.2471 32.8051 15.9434 32.8516 16.6509 32.8516C17.3582 32.8516 18.0547 32.8051 18.7378 32.7161V18.9386V18.9386H32.5154C32.6044 18.2554 32.6509 17.559 32.6509 16.8516C32.6509 16.1442 32.6044 15.4478 32.5154 14.7646Z" fill="#D80027"/>
<path d="M20.8247 21.0255L27.9645 28.1652C28.2928 27.837 28.6061 27.4938 28.905 27.138L22.7923 21.0254H20.8247V21.0255Z" fill="#D80027"/>
<path d="M12.477 21.0254H12.4768L5.33716 28.1651C5.66541 28.4935 6.00859 28.8067 6.36434 29.1056L12.477 22.9928V21.0254Z" fill="#D80027"/>
<path d="M12.477 12.6771V12.6769L5.33723 5.53711C5.00885 5.86536 4.6956 6.20855 4.39673 6.5643L10.5094 12.677H12.477V12.6771Z" fill="#D80027"/>
<path d="M20.8247 12.678L27.9645 5.53809C27.6363 5.20972 27.2931 4.89647 26.9373 4.59766L20.8247 10.7103V12.678Z" fill="#D80027"/>
</g>
<defs>
<clipPath id="clip0_883_3009">
<rect width="32" height="32" fill="white" transform="translate(0.650879 0.851562)"/>
</clipPath>
</defs>
</svg>