<svg xmlns="http://www.w3.org/2000/svg" width="33" height="33" viewBox="0 0 33 33" fill="none">
<g clip-path="url(#clip0_883_3001)">
<path d="M16.6509 32.8516C25.4874 32.8516 32.6509 25.6881 32.6509 16.8516C32.6509 8.01501 25.4874 0.851562 16.6509 0.851562C7.81432 0.851562 0.650879 8.01501 0.650879 16.8516C0.650879 25.6881 7.81432 32.8516 16.6509 32.8516Z" fill="#F0F0F0"/>
<path d="M15.9553 16.8517H32.6509C32.6509 15.4075 32.4584 14.0085 32.0998 12.6777H15.9553V16.8517Z" fill="#D80027"/>
<path d="M15.9553 8.50402H30.3026C29.3231 6.90577 28.0708 5.49308 26.6107 4.33008H15.9553V8.50402Z" fill="#D80027"/>
<path d="M16.6509 32.8513C20.4165 32.8513 23.8775 31.5498 26.6107 29.373H6.69116C9.42429 31.5498 12.8853 32.8513 16.6509 32.8513Z" fill="#D80027"/>
<path d="M2.99934 25.1993H30.3026C31.0889 23.9163 31.6987 22.5138 32.0998 21.0254H1.20215C1.60321 22.5138 2.21302 23.9163 2.99934 25.1993Z" fill="#D80027"/>
<path d="M8.06238 3.35019H9.52044L8.16419 4.3355L8.68225 5.92981L7.32607 4.9445L5.96988 5.92981L6.41738 4.5525C5.22325 5.54719 4.17663 6.71256 3.31413 8.01106H3.78132L2.918 8.63825C2.7835 8.86263 2.6545 9.09056 2.53088 9.32187L2.94313 10.5907L2.174 10.0319C1.98282 10.4369 1.80794 10.8511 1.65075 11.2739L2.10494 12.6719H3.78132L2.42507 13.6573L2.94313 15.2516L1.58694 14.2662L0.774566 14.8565C0.693254 15.5101 0.650879 16.1759 0.650879 16.8516H16.6509C16.6509 8.01506 16.6509 6.97331 16.6509 0.851562C13.4901 0.851562 10.5437 1.76844 8.06238 3.35019ZM8.68225 15.2516L7.32607 14.2662L5.96988 15.2516L6.48794 13.6573L5.13169 12.6719H6.80807L7.32607 11.0776L7.84407 12.6719H9.52044L8.16419 13.6573L8.68225 15.2516ZM8.16419 8.99638L8.68225 10.5907L7.32607 9.60538L5.96988 10.5907L6.48794 8.99638L5.13169 8.01106H6.80807L7.32607 6.41675L7.84407 8.01106H9.52044L8.16419 8.99638ZM14.4214 15.2516L13.0652 14.2662L11.709 15.2516L12.2271 13.6573L10.8708 12.6719H12.5472L13.0652 11.0776L13.5832 12.6719H15.2596L13.9033 13.6573L14.4214 15.2516ZM13.9033 8.99638L14.4214 10.5907L13.0652 9.60538L11.709 10.5907L12.2271 8.99638L10.8708 8.01106H12.5472L13.0652 6.41675L13.5832 8.01106H15.2596L13.9033 8.99638ZM13.9033 4.3355L14.4214 5.92981L13.0652 4.9445L11.709 5.92981L12.2271 4.3355L10.8708 3.35019H12.5472L13.0652 1.75587L13.5832 3.35019H15.2596L13.9033 4.3355Z" fill="#0052B4"/>
</g>
<defs>
<clipPath id="clip0_883_3001">
<rect width="32" height="32" fill="white" transform="translate(0.650879 0.851562)"/>
</clipPath>
</defs>
</svg>